<?xml version="1.0" encoding="utf-8"?>
<!-- Generator: Adobe Illustrator 27.6.1, SVG Export Plug-In . SVG Version: 6.00 Build 0)  -->
<svg version="1.1" id="Livello_1" xmlns="http://www.w3.org/2000/svg" xmlns:xlink="http://www.w3.org/1999/xlink" x="0px" y="0px"
	 viewBox="0 0 187 25" style="enable-background:new 0 0 187 25;" xml:space="preserve">
<style type="text/css">
	.st0{fill:#3627FC;}
</style>
<g>
	<g>
		<g>
			<path class="st0" d="M9.5,10.8l-0.8,1.7c-1.3,2.6-2.5,5.1-3.9,7.6c2.4-1.3,4.9-2.7,7.5-3.9l1.7-0.8l3.3,3.3L3.3,25L0,21.7
				L6.2,7.4L9.5,10.8z"/>
		</g>
		<g>
			<path class="st0" d="M17.3,18.7L18,17c1.3-2.6,2.5-5.1,3.9-7.6c-2.4,1.3-4.9,2.7-7.5,3.9l-1.7,0.8l-3.3-3.3l14-6.3l3.3,3.3
				L20.5,22L17.3,18.7z"/>
		</g>
	</g>
	<g>
		<path class="st0" d="M44,6.4h5.1l-5.9,16.7h-5.9L31.5,6.4h5.4l0.9,2.5c0.4,1.6,0.9,3.2,1.3,4.7c0.4,1.5,0.8,2.7,1,3.6
			c0.2,0.9,0.4,1.4,0.4,1.6c0.1-0.2,0.2-0.8,0.4-1.6c0.2-0.9,0.6-2,1-3.6c0.4-1.5,0.9-3.1,1.3-4.7L44,6.4z"/>
		<rect x="50.5" y="6.4" class="st0" width="5" height="16.7"/>
		<rect x="50.6" y="0.2" class="st0" width="4.7" height="4.3"/>
		<path class="st0" d="M59.5,22.2c-1.3-0.9-2-2.4-2.1-4.4h4.8c0.1,0.9,0.4,1.5,0.8,1.9s1.2,0.6,2.3,0.6c1.8,0,2.8-0.5,2.8-1.6
			c0-0.5-0.2-0.9-0.6-1.2c-0.4-0.3-1.1-0.5-2.2-0.7l-2.1-0.4c-3.7-0.6-5.5-2.3-5.5-5.1c0-1.7,0.6-3,1.9-3.9C60.8,6.4,62.6,6,65,6
			c4.9,0,7.5,1.9,7.6,5.7H68c0-1.6-1-2.4-3-2.4c-1.7,0-2.5,0.5-2.5,1.6c0,0.5,0.2,0.8,0.6,1.1c0.4,0.3,1,0.5,1.8,0.6l2.5,0.4
			c2,0.3,3.4,0.9,4.4,1.7s1.4,2,1.4,3.5c0,1.7-0.7,3.1-2.1,4c-1.4,0.9-3.3,1.4-5.8,1.4C62.7,23.6,60.7,23.1,59.5,22.2z"/>
		<path class="st0" d="M91.2,16.2H79c0.2,1.1,0.6,2,1.2,2.6c0.7,0.6,1.5,0.9,2.5,0.9c1.6,0,2.7-0.6,3.3-1.9h4.7
			C90.4,19.6,89.4,21,88,22c-1.4,1-3.2,1.5-5.2,1.5c-2.5,0-4.6-0.8-6.2-2.4c-1.6-1.6-2.4-3.7-2.4-6.4c0-2.7,0.8-4.8,2.3-6.4
			C78.1,6.8,80.1,6,82.7,6c2.5,0,4.6,0.8,6.2,2.5c1.5,1.7,2.3,3.9,2.3,6.7V16.2z M79.1,13h7.3c-0.2-1-0.6-1.8-1.2-2.4
			c-0.6-0.6-1.5-0.9-2.5-0.9C80.6,9.7,79.4,10.8,79.1,13z"/>
		<path class="st0" d="M104.1,6.2v4.6h-1.3c-2.9,0-4.4,1.5-4.4,4.5v7.8h-5V6.4h4.8v3.1c0.8-2.2,2.3-3.4,4.7-3.4
			C103.1,6.1,103.5,6.1,104.1,6.2z"/>
	</g>
	<g>
		<path class="st0" d="M108.5,22c-1.2-1-1.8-2.3-1.9-4.2h1.8c0.2,2.7,1.9,4,5,4c3.1,0,4.6-1.1,4.6-3.2c0-0.9-0.3-1.5-0.9-2
			c-0.6-0.5-1.7-0.9-3.1-1.1l-1.7-0.3c-1.8-0.3-3.1-0.9-3.9-1.6c-0.8-0.8-1.3-1.8-1.3-3.1c0-1.4,0.5-2.5,1.6-3.4
			c1-0.8,2.5-1.2,4.3-1.2c4.2,0,6.4,1.7,6.5,5.2h-1.8c-0.1-1.2-0.5-2.1-1.2-2.7c-0.7-0.6-1.9-0.9-3.4-0.9c-1.3,0-2.3,0.3-3,0.8
			c-0.7,0.5-1.1,1.2-1.1,2.2c0,0.9,0.3,1.5,0.9,2c0.6,0.5,1.6,0.8,3,1.1l1.7,0.3c1.9,0.3,3.3,0.9,4.1,1.6c0.8,0.7,1.3,1.8,1.3,3.1
			c0,1.6-0.6,2.8-1.7,3.6c-1.1,0.8-2.7,1.2-4.7,1.2C111.4,23.5,109.7,23,108.5,22z"/>
		<path class="st0" d="M129.1,8h-3.8v11.6c0,1.3,0.8,2,2.3,2c0.8,0,1.3,0,1.5,0v1.6c-0.6,0.1-1.2,0.1-1.7,0.1
			c-2.6,0-3.9-1.1-3.9-3.4V8h-2.8V6.4h2.8V1.6h1.8v4.7h3.8V8z"/>
		<path class="st0" d="M142.9,6.4h1.8v16.7H143V20c-0.5,1.1-1.3,2-2.2,2.6c-1,0.6-2,0.9-3.3,0.9c-1.8,0-3.3-0.5-4.3-1.6
			c-1-1.1-1.5-2.6-1.5-4.5v-11h1.8v10.9c0,3.1,1.5,4.6,4.4,4.6c1.4,0,2.6-0.5,3.6-1.6c0.9-1.1,1.4-2.6,1.4-4.5V6.4z"/>
		<path class="st0" d="M161.1,0h1.8v23.1h-1.7v-3.3c-1.3,2.4-3.3,3.7-6,3.7c-2.3,0-4.1-0.8-5.4-2.4c-1.4-1.6-2-3.7-2-6.4
			c0-2.7,0.7-4.8,2-6.4c1.3-1.6,3.1-2.4,5.4-2.4c2.7,0,4.6,1.2,5.9,3.5V0z M155.4,21.8c1.7,0,3.1-0.6,4.2-1.9c1-1.3,1.6-3,1.6-5.2
			s-0.5-3.9-1.6-5.2c-1.1-1.3-2.5-1.9-4.2-1.9c-1.8,0-3.2,0.6-4.2,1.9c-1,1.3-1.6,3.1-1.6,5.3c0,2.2,0.5,3.9,1.6,5.1
			C152.3,21.2,153.7,21.8,155.4,21.8z"/>
		<path class="st0" d="M166.7,3.8v-3h1.9v3H166.7z M166.8,23.1V6.4h1.8v16.7H166.8z"/>
		<path class="st0" d="M173.8,21c-1.4-1.6-2.1-3.7-2.1-6.3s0.7-4.8,2.1-6.4c1.4-1.6,3.2-2.4,5.5-2.4c2.3,0,4.1,0.8,5.6,2.4
			c1.4,1.6,2.1,3.7,2.1,6.4c0,2.6-0.7,4.7-2.1,6.3c-1.4,1.6-3.3,2.4-5.6,2.4C177,23.5,175.2,22.7,173.8,21z M179.3,21.8
			c1.8,0,3.2-0.6,4.2-1.9c1-1.3,1.6-3,1.6-5.2s-0.5-3.9-1.6-5.2c-1.1-1.3-2.5-1.9-4.2-1.9c-1.7,0-3.1,0.6-4.2,1.9
			c-1,1.3-1.6,3-1.6,5.2s0.5,3.9,1.6,5.2C176.2,21.2,177.6,21.8,179.3,21.8z"/>
	</g>
</g>
</svg>
